<svg width="298.9142822846528" height="298.9109375" viewBox="0 0 84 83.99906005859376" class="looka-1j8o68f"><defs id="SvgjsDefs3159"></defs><g id="SvgjsG3160" featurekey="rDwwlG-0" transform="matrix(0.9333333333333333,0,0,0.9333333333333333,-4.666666666666667,-4.666666666666667)" fill="#354b6f"><path xmlns="http://www.w3.org/2000/svg" d="M92.5,40h-8.959c-0.686-2.309-1.607-4.533-2.751-6.646l6.334-6.335c0.976-0.977,0.976-2.56,0-3.535L76.516,12.877   c-0.976-0.977-2.56-0.977-3.535,0l-6.334,6.334c-2.115-1.145-4.339-2.065-6.647-2.751V7.5C60,6.119,58.881,5,57.5,5h-15   C41.119,5,40,6.119,40,7.5v8.96c-2.308,0.686-4.532,1.606-6.647,2.751l-6.334-6.334c-0.976-0.977-2.56-0.977-3.535,0L12.877,23.483   c-0.977,0.976-0.977,2.559,0,3.535l6.334,6.335c-1.145,2.113-2.065,4.338-2.751,6.646H7.5C6.119,40,5,41.119,5,42.5v15   C5,58.881,6.119,60,7.5,60h8.959c0.686,2.309,1.607,4.533,2.751,6.646l-6.334,6.335c-0.976,0.977-0.976,2.56,0,3.535l10.607,10.606   c0.976,0.977,2.56,0.977,3.535,0l6.334-6.334c2.115,1.145,4.339,2.065,6.647,2.751v8.96c0,1.381,1.119,2.5,2.5,2.5h15   c1.381,0,2.5-1.119,2.5-2.5v-8.96c2.308-0.686,4.532-1.606,6.647-2.751l6.334,6.334c0.976,0.977,2.56,0.977,3.535,0l10.607-10.606   c0.977-0.976,0.977-2.559,0-3.535l-6.334-6.335c1.145-2.113,2.065-4.338,2.751-6.646H92.5c1.381,0,2.5-1.119,2.5-2.5v-15   C95,41.119,93.881,40,92.5,40z M25.251,81.82l-7.071-7.071l5.924-5.925c0.001-0.001,0.002-0.002,0.003-0.003l11.189-11.188   c0.683-0.683,0.912-1.697,0.587-2.606C35.297,53.381,35,51.689,35,50c0-8.271,6.729-15,15-15c1.719,0,3.423,0.301,5.038,0.883   l-6.322,3.649c-0.777,0.448-1.254,1.279-1.25,2.176l0.037,8.3c0.004,0.886,0.476,1.703,1.24,2.148l7.169,4.182   c0.774,0.453,1.732,0.455,2.51,0.006l6.337-3.659C63.49,59.68,57.355,65,50,65c-1.688,0-3.379-0.297-5.026-0.884   c-0.912-0.325-1.924-0.096-2.606,0.588L25.251,81.82z M90,55h-8.379c-1.159,0-2.167,0.797-2.433,1.925   c-0.739,3.128-1.967,6.095-3.65,8.817c-0.61,0.986-0.461,2.263,0.358,3.082l5.924,5.925l-7.071,7.071l-5.924-5.924   c-0.818-0.819-2.093-0.969-3.082-0.359c-2.725,1.684-5.692,2.911-8.818,3.65C55.797,79.454,55,80.461,55,81.62V90H45v-8.38   c0-1.159-0.797-2.166-1.925-2.433c-2.078-0.491-4.076-1.218-5.989-2.131l7.749-7.749C46.534,69.768,48.266,70,50,70   c11.028,0,20-8.972,20-20c0-0.129-0.007-0.257-0.016-0.384l-0.005-0.106c-0.053-1.171-0.699-2.207-1.728-2.771   c-1.026-0.563-2.242-0.548-3.255,0.036l-7.817,4.513l-4.682-2.73l-0.024-5.421l7.816-4.513c1-0.576,1.62-1.61,1.657-2.764   c0.038-1.16-0.516-2.237-1.481-2.881c-0.029-0.02-0.058-0.038-0.088-0.057C57.235,31.011,53.647,30,50,30c-11.028,0-20,8.972-20,20   c0,1.736,0.232,3.468,0.692,5.166l-7.749,7.748c-0.913-1.912-1.64-3.911-2.131-5.989C20.546,55.797,19.539,55,18.379,55H10V45   h8.379c1.159,0,2.167-0.797,2.433-1.925c0.739-3.128,1.967-6.095,3.65-8.817c0.61-0.986,0.461-2.263-0.358-3.082l-5.924-5.925   l7.071-7.071l5.924,5.924c0.819,0.819,2.094,0.97,3.082,0.359c2.725-1.684,5.692-2.911,8.818-3.65   C44.203,20.546,45,19.539,45,18.38V10h10v8.38c0,1.159,0.797,2.166,1.925,2.433c3.126,0.739,6.093,1.967,8.818,3.65   c0.988,0.61,2.264,0.46,3.082-0.359l5.924-5.924l7.071,7.071l-5.924,5.925c-0.819,0.819-0.968,2.096-0.358,3.082   c1.683,2.723,2.911,5.689,3.65,8.817C79.454,44.203,80.461,45,81.621,45H90V55z"></path></g><g id="SvgjsG3161" featurekey="4AZ1rv-0" transform="matrix(1,0,0,1,104,37)" fill="#482e69"><path d=""></path></g><g id="SvgjsG3162" featurekey="sloganFeature-0" transform="matrix(0.6,0,0,0.6,107,52)" fill="#482e69"><path d=""></path></g></svg>