<svg width="659.75" height="120.70565401998871" viewBox="0 0 370.258064516129 67.74117746660785" class="looka-1j8o68f"><defs id="SvgjsDefs2781"></defs><g id="SvgjsG2782" featurekey="rDwwlG-0" transform="matrix(0.7526881720430106,0,0,0.7526881720430106,-3.763440860215053,-3.763440860215053)" fill="#354b6f"><path xmlns="http://www.w3.org/2000/svg" d="M92.5,40h-8.959c-0.686-2.309-1.607-4.533-2.751-6.646l6.334-6.335c0.976-0.977,0.976-2.56,0-3.535L76.516,12.877   c-0.976-0.977-2.56-0.977-3.535,0l-6.334,6.334c-2.115-1.145-4.339-2.065-6.647-2.751V7.5C60,6.119,58.881,5,57.5,5h-15   C41.119,5,40,6.119,40,7.5v8.96c-2.308,0.686-4.532,1.606-6.647,2.751l-6.334-6.334c-0.976-0.977-2.56-0.977-3.535,0L12.877,23.483   c-0.977,0.976-0.977,2.559,0,3.535l6.334,6.335c-1.145,2.113-2.065,4.338-2.751,6.646H7.5C6.119,40,5,41.119,5,42.5v15   C5,58.881,6.119,60,7.5,60h8.959c0.686,2.309,1.607,4.533,2.751,6.646l-6.334,6.335c-0.976,0.977-0.976,2.56,0,3.535l10.607,10.606   c0.976,0.977,2.56,0.977,3.535,0l6.334-6.334c2.115,1.145,4.339,2.065,6.647,2.751v8.96c0,1.381,1.119,2.5,2.5,2.5h15   c1.381,0,2.5-1.119,2.5-2.5v-8.96c2.308-0.686,4.532-1.606,6.647-2.751l6.334,6.334c0.976,0.977,2.56,0.977,3.535,0l10.607-10.606   c0.977-0.976,0.977-2.559,0-3.535l-6.334-6.335c1.145-2.113,2.065-4.338,2.751-6.646H92.5c1.381,0,2.5-1.119,2.5-2.5v-15   C95,41.119,93.881,40,92.5,40z M25.251,81.82l-7.071-7.071l5.924-5.925c0.001-0.001,0.002-0.002,0.003-0.003l11.189-11.188   c0.683-0.683,0.912-1.697,0.587-2.606C35.297,53.381,35,51.689,35,50c0-8.271,6.729-15,15-15c1.719,0,3.423,0.301,5.038,0.883   l-6.322,3.649c-0.777,0.448-1.254,1.279-1.25,2.176l0.037,8.3c0.004,0.886,0.476,1.703,1.24,2.148l7.169,4.182   c0.774,0.453,1.732,0.455,2.51,0.006l6.337-3.659C63.49,59.68,57.355,65,50,65c-1.688,0-3.379-0.297-5.026-0.884   c-0.912-0.325-1.924-0.096-2.606,0.588L25.251,81.82z M90,55h-8.379c-1.159,0-2.167,0.797-2.433,1.925   c-0.739,3.128-1.967,6.095-3.65,8.817c-0.61,0.986-0.461,2.263,0.358,3.082l5.924,5.925l-7.071,7.071l-5.924-5.924   c-0.818-0.819-2.093-0.969-3.082-0.359c-2.725,1.684-5.692,2.911-8.818,3.65C55.797,79.454,55,80.461,55,81.62V90H45v-8.38   c0-1.159-0.797-2.166-1.925-2.433c-2.078-0.491-4.076-1.218-5.989-2.131l7.749-7.749C46.534,69.768,48.266,70,50,70   c11.028,0,20-8.972,20-20c0-0.129-0.007-0.257-0.016-0.384l-0.005-0.106c-0.053-1.171-0.699-2.207-1.728-2.771   c-1.026-0.563-2.242-0.548-3.255,0.036l-7.817,4.513l-4.682-2.73l-0.024-5.421l7.816-4.513c1-0.576,1.62-1.61,1.657-2.764   c0.038-1.16-0.516-2.237-1.481-2.881c-0.029-0.02-0.058-0.038-0.088-0.057C57.235,31.011,53.647,30,50,30c-11.028,0-20,8.972-20,20   c0,1.736,0.232,3.468,0.692,5.166l-7.749,7.748c-0.913-1.912-1.64-3.911-2.131-5.989C20.546,55.797,19.539,55,18.379,55H10V45   h8.379c1.159,0,2.167-0.797,2.433-1.925c0.739-3.128,1.967-6.095,3.65-8.817c0.61-0.986,0.461-2.263-0.358-3.082l-5.924-5.925   l7.071-7.071l5.924,5.924c0.819,0.819,2.094,0.97,3.082,0.359c2.725-1.684,5.692-2.911,8.818-3.65   C44.203,20.546,45,19.539,45,18.38V10h10v8.38c0,1.159,0.797,2.166,1.925,2.433c3.126,0.739,6.093,1.967,8.818,3.65   c0.988,0.61,2.264,0.46,3.082-0.359l5.924-5.924l7.071,7.071l-5.924,5.925c-0.819,0.819-0.968,2.096-0.358,3.082   c1.683,2.723,2.911,5.689,3.65,8.817C79.454,44.203,80.461,45,81.621,45H90V55z"></path></g><g id="SvgjsG2783" featurekey="4AZ1rv-0" transform="matrix(3.430457811177681,0,0,3.430457811177681,66.0450729528484,-24.42485595146084)" fill="#482e69"><path d="M12.7 20 c-1.18 0 -2.26 -0.28 -3.22 -0.84 c-0.96 -0.58 -1.72 -1.36 -2.26 -2.34 s-0.82 -2.08 -0.82 -3.3 c0 -1.18 0.28 -2.28 0.84 -3.26 c0.56 -0.96 1.34 -1.74 2.3 -2.3 c0.98 -0.56 2.08 -0.84 3.24 -0.84 c0.88 0 1.74 0.2 2.58 0.56 c0.84 0.38 1.56 0.88 2.16 1.52 c0.08 0.1 0.08 0.24 0 0.34 l-1.9 1.56 c-0.06 0.06 -0.12 0.1 -0.2 0.1 s-0.16 -0.04 -0.2 -0.1 c-1.02 -1.24 -2.66 -1.5 -4.04 -0.64 c-1.2 0.74 -1.64 2.1 -1.58 3.46 c0.06 1.38 1.06 2.56 2.38 2.96 c1.2 0.36 2.38 0.08 3.24 -0.84 c0.06 -0.04 0.12 -0.08 0.2 -0.06 c0.08 0 0.14 0.02 0.18 0.08 l1.94 1.36 c0.08 0.1 0.08 0.24 0 0.34 c-0.64 0.68 -1.4 1.24 -2.24 1.64 c-0.86 0.4 -1.74 0.6 -2.6 0.6 z M26.040000000000003 20 c-1.2 0 -2.3 -0.28 -3.26 -0.84 c-0.98 -0.56 -1.76 -1.36 -2.34 -2.32 c-0.56 -0.98 -0.84 -2.1 -0.84 -3.3 c0 -1.18 0.28 -2.28 0.84 -3.26 c0.58 -0.98 1.34 -1.76 2.32 -2.32 s2.08 -0.84 3.28 -0.84 c1.18 0 2.28 0.28 3.26 0.84 s1.76 1.34 2.32 2.32 c0.58 0.98 0.86 2.08 0.86 3.26 c0 1.2 -0.28 2.3 -0.86 3.28 c-0.56 0.98 -1.34 1.76 -2.32 2.34 c-0.98 0.56 -2.08 0.84 -3.26 0.84 z M26.080000000000002 17.12 c0.58 0 1.12 -0.16 1.6 -0.46 c0.5 -0.32 0.9 -0.74 1.18 -1.3 c0.3 -0.54 0.44 -1.16 0.44 -1.82 c0 -0.64 -0.14 -1.26 -0.44 -1.8 c-0.28 -0.54 -0.68 -0.96 -1.18 -1.28 c-0.48 -0.3 -1.02 -0.46 -1.6 -0.46 c-0.6 0 -1.14 0.16 -1.64 0.46 c-0.52 0.32 -0.92 0.74 -1.22 1.28 c-0.3 0.56 -0.44 1.16 -0.44 1.8 c0 0.66 0.14 1.28 0.44 1.82 c0.32 0.54 0.72 0.98 1.22 1.28 c0.5 0.32 1.04 0.48 1.64 0.48 z M34.74 20 c-0.14 0 -0.26 -0.12 -0.26 -0.26 l0 -11.98 c0 -0.14 0.12 -0.26 0.26 -0.26 l2.36 0 c0.08 0 0.16 0.04 0.22 0.1 l4.6 7.1 l0 -6.94 c0 -0.14 0.12 -0.26 0.26 -0.26 l2.46 0 c0.14 0 0.26 0.12 0.26 0.26 l0 11.98 c0 0.14 -0.12 0.26 -0.26 0.26 l-2.36 0 c-0.08 0 -0.16 -0.04 -0.22 -0.1 l-4.58 -7.06 l0 6.9 c0 0.14 -0.12 0.26 -0.26 0.26 l-2.48 0 z M47.160000000000004 20 c-0.14 0 -0.26 -0.12 -0.26 -0.26 l0 -11.98 c0 -0.14 0.12 -0.26 0.26 -0.26 l8.26 0 c0.08 0 0.14 0.02 0.18 0.08 c0.06 0.04 0.08 0.1 0.08 0.18 l-0.02 2.24 c0 0.14 -0.12 0.26 -0.26 0.26 l-5.4 0 l0 2.42 l3.4 0 c0.14 0 0.26 0.12 0.26 0.26 l0 2.26 c0 0.14 -0.12 0.26 -0.26 0.26 l-3.4 0 l0 4.28 c0 0.14 -0.1 0.26 -0.24 0.26 l-2.6 0 z M57.540000000000006 20 c-0.14 0 -0.26 -0.12 -0.26 -0.26 l0 -11.98 c0 -0.14 0.12 -0.26 0.26 -0.26 l2.6 0 c0.14 0 0.26 0.12 0.26 0.26 l0 11.98 c0 0.14 -0.12 0.26 -0.26 0.26 l-2.6 0 z M68.78 20 c-1.18 0 -2.28 -0.28 -3.24 -0.84 c-0.98 -0.58 -1.74 -1.36 -2.3 -2.32 c-0.56 -0.98 -0.84 -2.1 -0.84 -3.3 s0.28 -2.3 0.86 -3.26 c0.56 -0.98 1.36 -1.76 2.34 -2.32 c1 -0.56 2.12 -0.84 3.34 -0.84 c0.88 0 1.74 0.16 2.6 0.5 c0.84 0.32 1.58 0.78 2.18 1.36 c0.1 0.08 0.12 0.22 0.04 0.34 l-1.46 1.92 c-0.06 0.06 -0.12 0.1 -0.2 0.12 c-0.06 0 -0.14 -0.04 -0.2 -0.08 c-0.4 -0.4 -0.86 -0.72 -1.4 -0.94 c-0.52 -0.22 -1.04 -0.34 -1.56 -0.34 c-0.62 0 -1.2 0.16 -1.7 0.46 c-0.52 0.32 -0.92 0.74 -1.22 1.28 s-0.44 1.14 -0.44 1.8 s0.14 1.28 0.44 1.82 s0.72 0.98 1.22 1.3 c0.52 0.3 1.1 0.46 1.7 0.46 c0.32 0 0.66 -0.06 1.04 -0.16 c0.32 -0.1 0.66 -0.24 0.96 -0.4 l0 -0.92 l-1.38 0 c-0.08 0 -0.14 -0.02 -0.18 -0.08 c-0.06 -0.04 -0.08 -0.1 -0.08 -0.18 l0.02 -2.24 c0 -0.14 0.12 -0.26 0.26 -0.26 l3.88 0 c0.14 0 0.26 0.12 0.26 0.26 l0 5.02 c0 0.08 -0.04 0.16 -0.12 0.22 c-0.62 0.48 -1.38 0.88 -2.26 1.16 c-0.88 0.3 -1.74 0.46 -2.56 0.46 z M82.24000000000001 20 c-1.2 0 -2.3 -0.28 -3.26 -0.84 c-0.98 -0.56 -1.76 -1.36 -2.34 -2.32 c-0.56 -0.98 -0.84 -2.1 -0.84 -3.3 c0 -1.18 0.28 -2.28 0.84 -3.26 c0.58 -0.98 1.34 -1.76 2.32 -2.32 s2.08 -0.84 3.28 -0.84 c1.18 0 2.28 0.28 3.26 0.84 s1.76 1.34 2.32 2.32 c0.58 0.98 0.86 2.08 0.86 3.26 c0 1.2 -0.28 2.3 -0.86 3.28 c-0.56 0.98 -1.34 1.76 -2.32 2.34 c-0.98 0.56 -2.08 0.84 -3.26 0.84 z M82.28000000000002 17.12 c0.58 0 1.12 -0.16 1.6 -0.46 c0.5 -0.32 0.9 -0.74 1.18 -1.3 c0.3 -0.54 0.44 -1.16 0.44 -1.82 c0 -0.64 -0.14 -1.26 -0.44 -1.8 c-0.28 -0.54 -0.68 -0.96 -1.18 -1.28 c-0.48 -0.3 -1.02 -0.46 -1.6 -0.46 c-0.6 0 -1.14 0.16 -1.64 0.46 c-0.52 0.32 -0.92 0.74 -1.22 1.28 c-0.3 0.56 -0.44 1.16 -0.44 1.8 c0 0.66 0.14 1.28 0.44 1.82 c0.32 0.54 0.72 0.98 1.22 1.28 c0.5 0.32 1.04 0.48 1.64 0.48 z"></path></g><g id="SvgjsG2784" featurekey="sloganFeature-0" transform="matrix(1.0887485399362298,0,0,1.0887485399362298,89.75882732899207,45.66018686937409)" fill="#482e69"><path d="M10.16 13.719999999999999 c0.88 0.62 1.4 1.54 1.4 2.62 c0 2.08 -1.92 3.66 -3.92 3.66 l-6.5 0 l0 -12.24 l6.1 0 c1.6 0 2.92 0.86 3.62 2.28 c0.2 0.46 0.3 0.92 0.3 1.4 c0 0.9 -0.36 1.64 -1 2.28 z M4.14 10.54 l0 1.96 l3.1 0 c0.52 0 0.92 -0.5 0.92 -1 c0 -0.52 -0.38 -0.96 -0.92 -0.96 l-3.1 0 z M4.14 15.280000000000001 l0 1.94 l3.5 0 c0.54 0 0.92 -0.44 0.92 -0.96 c0 -0.26 -0.1 -0.5 -0.28 -0.7 c-0.18 -0.18 -0.4 -0.28 -0.64 -0.28 l-3.5 0 z M16.46 20 l0 -4.54 c-2.42 -0.54 -3.82 -2.54 -3.82 -4.94 l0 -2.76 l3 0 l0 2.76 c0 1.44 0.86 2.32 2.3 2.32 c1.48 0 2.3 -0.86 2.3 -2.32 l0 -2.76 l3 0 l0 2.76 c0 2.44 -1.42 4.38 -3.78 4.94 l0 4.54 l-3 0 z M40.160000000000004 12.5 l0 6.8 c-1.42 0.54 -3.2 0.84 -4.72 0.84 c-3.9 0 -6.52 -2.34 -6.52 -6.2 c0 -4.22 3.14 -6.28 6.98 -6.28 c0.26 0 0.54 0 0.86 0.02 c0.3 0.02 0.62 0.06 0.96 0.08 c0.62 0.08 1.24 0.16 1.84 0.34 l0 3.06 c-0.22 -0.1 -0.46 -0.18 -0.74 -0.26 c-0.3 -0.06 -0.6 -0.12 -0.92 -0.18 c-0.64 -0.12 -1.32 -0.16 -1.98 -0.16 c-2.54 0 -4 0.78 -4 3.38 c0 2.54 1.34 3.3 3.62 3.3 c0.24 0 0.5 -0.02 0.78 -0.04 c0.26 -0.02 0.54 -0.04 0.84 -0.06 l0 -1.86 l-2.6 0 l0 -2.78 l5.6 0 z M47.94 17.32 c2.18 0 3.3 -1.4 3.3 -3.44 c0 -2.16 -1.2 -3.44 -3.3 -3.44 c-2.2 0 -3.3 1.4 -3.3 3.44 c0 2.12 1.22 3.44 3.3 3.44 z M47.94 20.1 c-3.76 0 -6.3 -2.56 -6.3 -6.22 c0 -3.78 2.66 -6.22 6.3 -6.22 c3.78 0 6.3 2.54 6.3 6.22 c0 3.8 -2.64 6.22 -6.3 6.22 z M56.1 7.76 l9.1 0 l0 2.78 l-6.1 0 l0 1.96 l4.9 0 l0 2.78 l-4.9 0 l0 4.72 l-3 0 l0 -12.24 z M69.9 10.58 l0 2.92 l2.8 0 c0.92 0 1.46 -0.54 1.46 -1.46 s-0.54 -1.46 -1.46 -1.46 l-2.8 0 z M74.44 15.48 c0.56 0.76 1.12 1.52 1.7 2.26 c0.56 0.74 1.12 1.5 1.68 2.26 l-3.66 0 c-0.72 -0.96 -1.42 -1.92 -2.12 -2.88 c-0.7 -0.94 -1.42 -1.9 -2.14 -2.86 l0 5.74 l-3 0 l0 -12.24 l5.8 0 c2.28 0 4.22 1.74 4.22 4.04 c0 1.62 -1 3.04 -2.48 3.68 z M79.08 7.76 l9.1 0 l0 2.78 l-6.1 0 l0 1.96 l4.9 0 l0 2.78 l-4.9 0 l0 1.94 l6.1 0 l0 2.78 l-9.1 0 l0 -12.24 z M89.88 7.76 l9.1 0 l0 2.78 l-6.1 0 l0 1.96 l4.9 0 l0 2.78 l-4.9 0 l0 1.94 l6.1 0 l0 2.78 l-9.1 0 l0 -12.24 z M111.5 12.5 l0 6.8 c-1.42 0.54 -3.2 0.84 -4.72 0.84 c-3.9 0 -6.52 -2.34 -6.52 -6.2 c0 -4.22 3.14 -6.28 6.98 -6.28 c0.26 0 0.54 0 0.86 0.02 c0.3 0.02 0.62 0.06 0.96 0.08 c0.62 0.08 1.24 0.16 1.84 0.34 l0 3.06 c-0.22 -0.1 -0.46 -0.18 -0.74 -0.26 c-0.3 -0.06 -0.6 -0.12 -0.92 -0.18 c-0.64 -0.12 -1.32 -0.16 -1.98 -0.16 c-2.54 0 -4 0.78 -4 3.38 c0 2.54 1.34 3.3 3.62 3.3 c0.24 0 0.5 -0.02 0.78 -0.04 c0.26 -0.02 0.54 -0.04 0.84 -0.06 l0 -1.86 l-2.6 0 l0 -2.78 l5.6 0 z M119.27999999999999 17.32 c2.18 0 3.3 -1.4 3.3 -3.44 c0 -2.16 -1.2 -3.44 -3.3 -3.44 c-2.2 0 -3.3 1.4 -3.3 3.44 c0 2.12 1.22 3.44 3.3 3.44 z M119.27999999999999 20.1 c-3.76 0 -6.3 -2.56 -6.3 -6.22 c0 -3.78 2.66 -6.22 6.3 -6.22 c3.78 0 6.3 2.54 6.3 6.22 c0 3.8 -2.64 6.22 -6.3 6.22 z"></path></g></svg>